<?xml version="1.0" standalone="no"?>
<!DOCTYPE svg PUBLIC "-//W3C//DTD SVG 20010904//EN"
 "http://www.w3.org/TR/2001/REC-SVG-20010904/DTD/svg10.dtd">
<svg version="1.0" xmlns="http://www.w3.org/2000/svg"
 width="1224.000000pt" height="149.000000pt" viewBox="0 0 1224.000000 149.000000"
 preserveAspectRatio="xMidYMid meet">

<g transform="translate(0.000000,149.000000) scale(0.100000,-0.100000)"
fill="#000000" stroke="none">
<path d="M1130 735 l0 -545 540 0 540 0 0 545 0 545 -540 0 -540 0 0 -545z
m903 208 c11 -10 -44 -63 -65 -63 -25 0 -23 9 9 42 27 28 43 34 56 21z m-606
-99 c41 -56 21 -112 -49 -134 -45 -14 -47 -17 -50 -55 -2 -32 -7 -40 -23 -40
-19 0 -20 8 -23 105 -2 58 0 116 3 129 6 22 9 23 67 19 45 -3 64 -9 75 -24z
m201 9 c-2 -14 -15 -19 -56 -21 -52 -3 -52 -3 -52 -37 0 -33 1 -34 48 -37 59
-4 58 -22 -3 -26 l-45 -3 0 -39 0 -39 52 -3 c41 -2 54 -7 56 -21 3 -16 -4 -18
-70 -15 l-73 3 -3 114 c-1 63 0 121 2 128 4 9 27 13 76 13 63 0 71 -2 68 -17z
m177 -8 c30 -29 32 -65 7 -89 -18 -16 -18 -18 4 -64 28 -57 30 -82 7 -82 -12
0 -27 19 -43 53 -18 37 -32 53 -47 55 -22 3 -23 0 -23 -52 0 -49 -2 -56 -20
-56 -19 0 -20 7 -20 130 l0 130 55 0 c46 0 60 -4 80 -25z m115 -74 c0 -107 7
-123 55 -123 48 0 55 16 55 123 0 92 1 99 20 99 19 0 20 -7 20 -105 0 -99 -2
-107 -25 -130 -34 -35 -106 -35 -140 0 -23 23 -25 31 -25 130 0 98 1 105 20
105 19 0 20 -7 20 -99z"/>
<path d="M1330 784 c0 -43 1 -45 26 -42 34 4 49 27 40 61 -5 22 -12 27 -36 27
-29 0 -30 -2 -30 -46z"/>
<path d="M1710 795 c0 -35 1 -36 33 -33 28 3 32 6 32 33 0 27 -4 30 -32 33
-32 3 -33 2 -33 -33z"/>
<path d="M2250 735 l0 -545 1625 0 1625 0 0 545 0 545 -1625 0 -1625 0 0 -545z
m480 119 c0 -8 -9 -14 -20 -14 -22 0 -28 26 -7 33 16 6 27 -1 27 -19z m224 -5
c-8 -14 -34 -11 -34 4 0 8 3 17 7 20 9 9 34 -13 27 -24z m526 5 c0 -14 -21
-19 -33 -7 -9 9 13 34 24 27 5 -3 9 -12 9 -20z m-960 -51 c14 -35 28 -63 31
-63 3 0 17 28 30 63 21 53 29 62 49 62 25 0 25 -1 25 -95 0 -78 -3 -95 -15
-95 -11 0 -16 16 -20 65 l-5 65 -25 -65 c-14 -36 -32 -66 -40 -68 -10 -2 -24
20 -42 65 l-27 68 0 -68 c-1 -60 -3 -68 -18 -65 -15 3 -18 17 -21 87 -3 100 0
113 30 109 17 -2 29 -18 48 -65z m617 37 c3 -11 14 -20 24 -20 25 0 24 -21 -2
-27 -17 -5 -20 -12 -17 -47 2 -28 8 -41 18 -41 23 0 18 -30 -5 -33 -34 -4 -48
14 -53 67 -2 28 -8 51 -13 51 -5 0 -9 7 -9 15 0 8 4 15 9 15 5 0 11 9 14 20 3
11 10 20 17 20 7 0 14 -9 17 -20z m-407 -96 c0 -66 -2 -75 -17 -72 -15 3 -19
16 -21 76 -3 67 -1 72 18 72 18 0 20 -6 20 -76z m147 46 c19 -36 13 -114 -9
-118 -14 -3 -17 6 -20 55 -3 50 -6 58 -23 58 -17 0 -21 -8 -25 -55 -4 -40 -9
-55 -20 -55 -12 0 -16 16 -18 72 l-3 71 53 -1 c45 -2 54 -6 65 -27z m73 -45
c0 -60 -3 -75 -15 -75 -12 0 -15 15 -15 75 0 60 3 75 15 75 12 0 15 -15 15
-75z m120 60 c0 -10 -10 -15 -32 -15 l-33 -1 25 -19 c46 -37 50 -41 50 -55 0
-41 -91 -63 -98 -23 -3 15 2 17 27 12 41 -9 42 15 1 38 -51 29 -34 78 27 78
23 0 33 -5 33 -15z m238 -18 c18 -37 9 -47 -44 -47 -24 0 -44 -4 -44 -9 0 -19
31 -33 60 -27 22 4 30 2 30 -8 0 -31 -71 -35 -100 -6 -25 25 -27 86 -3 112 26
29 84 21 101 -15z m122 18 c0 -7 -10 -15 -22 -17 -20 -3 -24 -10 -28 -58 -4
-40 -9 -55 -20 -55 -12 0 -16 16 -18 71 l-3 71 46 1 c32 1 45 -3 45 -13z m50
-60 c0 -60 -3 -75 -15 -75 -12 0 -15 15 -15 75 0 60 3 75 15 75 12 0 15 -15
15 -75z m137 67 c23 -15 35 -64 22 -94 -32 -78 -133 -57 -133 27 0 44 28 75
68 75 17 0 36 -4 43 -8z m-1052 -312 l0 -104 -46 -2 c-34 -2 -51 2 -62 14 -23
27 -27 62 -12 99 13 31 26 38 68 34 13 -2 17 5 17 27 0 31 8 44 24 39 7 -2 11
-43 11 -107z m560 -1 c0 -86 -3 -104 -15 -104 -12 0 -16 18 -18 94 -3 102 1
125 21 118 8 -2 12 -33 12 -108z m313 6 c3 -95 -8 -138 -26 -108 -5 8 -13 9
-22 3 -39 -25 -80 11 -80 69 0 47 20 71 61 71 25 0 29 4 29 28 0 31 8 44 24
39 7 -2 12 -44 14 -102z m-523 66 c0 -10 -11 -15 -34 -15 -48 -1 -49 -21 -2
-45 22 -11 42 -30 46 -41 9 -28 -18 -68 -51 -76 -31 -8 -74 10 -74 31 0 18 1
18 34 5 30 -11 56 -4 56 16 0 8 -18 25 -40 39 -31 20 -40 31 -40 53 0 15 6 34
12 40 18 18 93 11 93 -7z m-203 -55 c4 -6 8 -21 8 -33 0 -21 -5 -23 -45 -23
-32 0 -45 -4 -45 -14 0 -18 33 -30 59 -21 27 8 36 -12 12 -24 -73 -39 -144 47
-96 116 24 34 84 34 107 -1z m337 10 c7 -8 11 -38 9 -71 l-3 -58 -35 -3 c-47
-4 -68 3 -75 26 -9 29 11 57 45 63 43 9 39 31 -5 24 -33 -5 -47 7 -28 26 12
13 80 7 92 -7z m141 -27 c0 -57 15 -82 40 -69 16 8 20 21 20 60 0 38 4 50 15
50 13 0 15 -12 13 -71 l-3 -71 -40 -4 c-58 -5 -75 15 -75 88 0 45 3 58 15 58
11 0 15 -11 15 -41z"/>
<path d="M3230 780 c0 -5 12 -10 26 -10 14 0 23 4 19 10 -3 6 -15 10 -26 10
-10 0 -19 -4 -19 -10z"/>
<path d="M3544 763 c-8 -31 6 -58 31 -58 25 0 39 27 31 58 -5 20 -13 27 -31
27 -18 0 -26 -7 -31 -27z"/>
<path d="M2476 495 c-17 -46 10 -89 40 -65 23 20 15 74 -12 78 -13 2 -24 -4
-28 -13z"/>
<path d="M3350 489 c-13 -23 0 -69 19 -69 17 0 32 29 29 57 -4 35 -32 42 -48
12z"/>
<path d="M2635 500 c-4 -6 5 -10 19 -10 14 0 26 5 26 10 0 6 -9 10 -19 10 -11
0 -23 -4 -26 -10z"/>
<path d="M2993 453 c-7 -2 -13 -11 -13 -20 0 -20 34 -12 38 10 3 17 -3 20 -25
10z"/>
<path d="M574 1194 c-4 -10 -8 -21 -10 -24 -1 -3 8 -5 21 -5 20 0 22 3 13 20
-15 29 -17 30 -24 9z"/>
<path d="M644 1180 c1 -32 30 -34 34 -2 2 12 -1 22 -6 22 -6 0 -8 -9 -5 -20 3
-11 1 -20 -5 -20 -6 0 -13 10 -15 23 -3 19 -4 19 -3 -3z"/>
<path d="M481 1195 c1 -19 18 -51 18 -35 0 8 -4 22 -9 30 -5 8 -9 11 -9 5z"/>
<path d="M510 1180 c0 -11 2 -20 4 -20 2 0 6 9 9 20 3 11 1 20 -4 20 -5 0 -9
-9 -9 -20z"/>
<path d="M694 1175 c-7 -17 3 -35 19 -35 7 0 6 4 -3 10 -13 9 -12 12 4 25 18
13 18 15 3 15 -10 0 -20 -7 -23 -15z"/>
<path d="M440 1173 c0 -15 18 -35 27 -32 5 2 1 12 -9 22 -10 9 -18 14 -18 10z"/>
<path d="M743 1163 c-3 -10 -8 -21 -10 -25 -2 -5 2 -8 9 -8 7 0 13 11 13 25 0
29 -3 32 -12 8z"/>
<path d="M390 1161 c0 -20 13 -41 25 -41 21 0 28 19 15 35 -14 17 -40 20 -40
6z"/>
<path d="M370 1133 c13 -27 -4 -32 -19 -5 -10 16 -10 16 -11 -1 0 -20 27 -34
41 -20 6 6 3 16 -7 29 -15 18 -15 18 -4 -3z"/>
<path d="M800 1131 c-9 -17 -8 -20 5 -15 8 4 15 11 15 18 0 6 5 4 11 -4 9 -12
10 -12 7 -1 -7 23 -26 24 -38 2z"/>
<path d="M849 1109 c-8 -16 -8 -24 1 -33 8 -8 9 -6 4 8 -6 15 -4 17 6 11 9 -6
11 -4 5 5 -6 10 -4 12 10 6 15 -5 16 -4 5 9 -16 19 -17 19 -31 -6z"/>
<path d="M297 1114 c-3 -4 -1 -16 4 -27 9 -16 13 -17 20 -6 13 21 11 39 -4 39
-8 0 -17 -3 -20 -6z"/>
<path d="M9860 1095 c-20 -24 -6 -28 15 -5 10 11 13 20 8 20 -6 0 -16 -7 -23
-15z"/>
<path d="M11000 1015 c0 -57 4 -95 10 -95 6 0 10 38 10 95 0 57 -4 95 -10 95
-6 0 -10 -38 -10 -95z"/>
<path d="M9020 1010 l0 -90 39 0 c59 0 92 32 93 89 1 58 -33 91 -93 91 l-39 0
0 -90z m94 54 c9 -9 16 -32 16 -54 0 -46 -21 -70 -61 -70 l-29 0 0 70 0 70 29
0 c16 0 37 -7 45 -16z"/>
<path d="M9190 1085 c0 -9 5 -15 11 -13 6 2 11 8 11 13 0 5 -5 11 -11 13 -6 2
-11 -4 -11 -13z"/>
<path d="M9737 1094 c-8 -8 1 -24 14 -24 5 0 9 7 9 15 0 15 -12 20 -23 9z"/>
<path d="M10187 1080 c-75 -59 -21 -176 72 -155 29 6 31 10 31 51 0 42 -1 44
-30 44 -16 0 -30 -4 -30 -10 0 -5 9 -10 20 -10 16 0 20 -7 20 -30 0 -27 -3
-30 -29 -30 -33 0 -58 20 -67 55 -6 23 10 64 30 77 17 12 61 9 74 -4 9 -9 12
-9 12 0 0 14 -32 32 -58 32 -11 0 -31 -9 -45 -20z"/>
<path d="M262 1078 c-9 -9 -8 -16 5 -30 14 -16 14 -18 0 -18 -8 0 -17 6 -20
13 -3 9 -8 8 -21 -3 -14 -14 -14 -17 5 -28 12 -8 18 -9 14 -3 -3 6 2 11 13 11
10 0 27 9 37 20 18 20 18 21 0 14 -13 -5 -16 -4 -11 4 4 7 2 12 -4 12 -6 0 -8
5 -5 10 8 14 2 13 -13 -2z"/>
<path d="M886 1075 c-3 -8 -1 -15 4 -15 6 0 10 -8 10 -17 0 -14 3 -13 16 5 8
12 12 27 9 32 -9 15 -32 12 -39 -5z m34 -5 c0 -5 -2 -10 -4 -10 -3 0 -8 5 -11
10 -3 6 -1 10 4 10 6 0 11 -4 11 -10z"/>
<path d="M930 1045 c-13 -15 -7 -45 8 -45 5 0 15 7 22 15 15 18 -1 20 -18 3
-7 -7 -12 -8 -12 -2 0 5 5 15 12 22 6 6 9 14 6 17 -3 3 -11 -1 -18 -10z"/>
<path d="M570 1041 c-53 -7 -71 -17 -93 -51 -24 -37 -10 -81 32 -100 58 -28
168 -11 194 31 18 29 0 82 -38 107 -19 12 -38 21 -42 20 -5 0 -28 -4 -53 -7z
m76 -68 c7 -10 14 -22 14 -26 0 -15 -70 -37 -95 -31 -68 17 -37 92 32 81 19
-4 41 -14 49 -24z"/>
<path d="M9190 985 c0 -37 4 -65 10 -65 6 0 10 28 10 65 0 37 -4 65 -10 65 -6
0 -10 -28 -10 -65z"/>
<path d="M9260 985 c0 -78 16 -87 22 -12 5 56 1 77 -13 77 -5 0 -9 -29 -9 -65z"/>
<path d="M9295 1040 c-3 -5 3 -10 14 -10 12 0 21 5 21 10 0 6 -6 10 -14 10 -8
0 -18 -4 -21 -10z"/>
<path d="M9372 1034 c-32 -22 -30 -78 3 -100 16 -10 34 -14 50 -10 37 9 30 21
-12 21 -28 0 -38 5 -41 18 -3 14 4 17 42 17 50 0 57 10 30 48 -18 26 -41 28
-72 6z m66 -21 c2 -9 -8 -13 -32 -13 -34 0 -44 8 -29 24 11 11 56 2 61 -11z"/>
<path d="M9507 1032 c-21 -23 -22 -76 -1 -96 16 -17 33 -20 58 -10 27 10 18
22 -16 20 -32 -1 -33 0 -33 39 0 38 1 40 33 40 37 0 38 19 1 23 -15 2 -32 -5
-42 -16z"/>
<path d="M9627 1032 c-21 -23 -22 -76 -1 -96 16 -17 33 -20 58 -10 27 10 18
22 -16 20 -32 -1 -33 0 -33 39 0 38 1 40 33 40 37 0 38 19 1 23 -15 2 -32 -5
-42 -16z"/>
<path d="M9743 985 c0 -38 2 -53 4 -32 2 20 2 52 0 70 -2 17 -4 1 -4 -38z"/>
<path d="M9810 1030 c-11 -11 -20 -31 -20 -45 0 -30 32 -65 60 -65 29 0 60 35
60 68 0 56 -61 81 -100 42z m76 -27 c4 -14 2 -33 -3 -42 -22 -35 -73 -19 -73
23 0 50 65 66 76 19z"/>
<path d="M9950 985 c0 -37 4 -65 10 -65 6 0 10 22 10 50 0 45 2 50 25 56 34 8
38 3 46 -59 l7 -52 -2 59 c-1 68 -20 91 -56 68 -12 -7 -20 -8 -20 -2 0 5 -4
10 -10 10 -6 0 -10 -28 -10 -65z"/>
<path d="M10350 1030 c-51 -51 5 -130 74 -104 27 10 18 21 -14 16 -29 -4 -60
11 -60 29 0 5 20 9 45 9 38 0 45 3 45 19 0 25 -26 51 -51 51 -10 0 -28 -9 -39
-20z m68 -17 c2 -9 -8 -13 -33 -13 -33 0 -36 2 -25 15 15 18 51 16 58 -2z"/>
<path d="M10480 985 c0 -37 4 -65 10 -65 6 0 10 22 10 49 0 42 3 51 21 56 29
9 42 -7 50 -63 7 -47 7 -47 5 12 -1 68 -20 91 -56 68 -12 -7 -20 -8 -20 -2 0
5 -4 10 -10 10 -6 0 -10 -28 -10 -65z"/>
<path d="M10642 1034 c-22 -15 -30 -66 -14 -90 10 -16 49 -26 72 -19 32 10 23
20 -17 20 -28 0 -38 5 -41 18 -3 14 4 17 42 17 52 0 60 16 26 50 -24 24 -38
25 -68 4z m66 -21 c2 -9 -8 -13 -32 -13 -34 0 -44 8 -29 24 11 11 56 2 61 -11z"/>
<path d="M10773 985 c0 -49 2 -57 4 -25 5 52 17 70 46 70 17 0 18 3 9 12 -10
10 -17 10 -32 1 -14 -10 -20 -10 -23 0 -3 7 -5 -19 -4 -58z"/>
<path d="M10881 1041 c-11 -7 -6 -10 19 -13 37 -3 55 -28 20 -28 -32 0 -60
-18 -60 -39 0 -27 22 -41 58 -38 32 2 32 2 32 58 0 43 -4 58 -16 63 -21 8 -36
7 -53 -3z m57 -78 c-4 -22 -58 -31 -58 -10 0 20 10 27 37 27 18 0 24 -5 21
-17z"/>
<path d="M305 954 c-3 -19 -8 -34 -11 -34 -9 0 -68 43 -76 55 -5 6 -8 6 -8 -2
0 -6 5 -15 10 -18 6 -4 10 -62 10 -141 0 -78 4 -134 10 -134 5 0 20 -10 32
-22 23 -22 80 -58 92 -58 13 0 27 53 16 64 -15 15 -12 26 5 20 11 -5 15 1 15
20 0 34 -26 96 -39 96 -6 0 -11 12 -11 26 0 25 -2 26 -36 21 -29 -5 -35 -3
-30 9 3 9 6 20 6 25 0 17 41 9 73 -15 l32 -24 21 27 20 26 -62 46 -62 47 -7
-34z m-9 -216 c12 -14 13 -18 3 -10 -9 6 -18 10 -21 7 -2 -3 -5 2 -5 10 0 19
0 19 23 -7z"/>
<path d="M820 957 c-14 -12 -39 -32 -55 -44 l-30 -21 24 -26 24 -25 34 26 c37
28 64 24 71 -10 3 -13 -3 -15 -27 -12 -23 3 -32 -1 -36 -16 -4 -11 -11 -16
-18 -13 -7 4 -9 4 -5 -1 4 -4 1 -19 -6 -34 -31 -62 -26 -120 8 -92 14 11 16
11 16 -3 0 -10 -4 -15 -8 -12 -4 2 -14 1 -21 -3 -11 -7 -11 -14 1 -37 20 -43
35 -40 100 18 17 15 34 25 39 23 4 -3 9 60 11 140 2 80 0 145 -3 145 -3 0 -14
-9 -24 -20 -26 -28 -42 -25 -50 10 -8 36 -12 36 -45 7z m70 -227 c-11 -21 -30
-27 -30 -9 0 5 4 8 9 5 5 -3 11 1 15 9 3 8 8 15 11 15 3 0 1 -9 -5 -20z"/>
<path d="M540 840 c0 -6 6 -10 13 -10 7 0 4 -7 -7 -15 -12 -9 -15 -15 -7 -15
11 0 11 -3 1 -15 -7 -8 -16 -13 -20 -10 -5 3 -7 -3 -6 -12 3 -19 21 -21 21 -3
0 6 5 14 11 18 19 12 26 59 9 66 -8 3 -15 1 -15 -4z"/>
<path d="M515 830 c3 -5 8 -10 11 -10 2 0 4 5 4 10 0 6 -5 10 -11 10 -5 0 -7
-4 -4 -10z"/>
<path d="M730 818 c-5 -13 -18 -34 -29 -48 -17 -21 -22 -23 -30 -10 -6 8 -8
17 -5 19 3 3 9 -1 14 -9 8 -13 10 -12 10 3 0 20 -52 24 -67 5 -11 -15 -11 -38
0 -38 4 0 10 0 13 0 4 0 1 7 -6 15 -7 8 -8 15 -2 15 5 0 15 -7 23 -16 10 -13
10 -17 0 -24 -8 -4 -11 -13 -7 -19 10 -15 68 -9 74 8 3 8 0 11 -6 7 -5 -3 -12
1 -16 9 -6 17 9 21 19 5 10 -16 35 -12 35 6 0 13 -3 14 -14 5 -11 -9 -15 -8
-20 4 -4 11 -2 14 6 9 8 -5 9 -2 5 9 -4 10 -1 17 6 17 7 0 12 11 12 25 0 31
-3 31 -15 3z m-40 -87 c0 -6 -4 -13 -10 -16 -5 -3 -10 1 -10 9 0 9 5 16 10 16
6 0 10 -4 10 -9z"/>
<path d="M9100 805 c0 -32 -2 -35 -24 -29 -30 7 -66 -25 -66 -59 0 -50 49 -84
78 -55 10 10 15 10 22 -2 7 -10 10 17 10 83 0 58 -4 97 -10 97 -5 0 -10 -16
-10 -35z m-16 -51 c25 -10 21 -71 -4 -79 -40 -13 -68 43 -38 73 14 14 20 14
42 6z"/>
<path d="M637 824 c-8 -8 1 -24 12 -24 4 0 8 7 8 15 0 16 -9 20 -20 9z"/>
<path d="M690 820 c0 -5 5 -10 10 -10 6 0 10 5 10 10 0 6 -4 10 -10 10 -5 0
-10 -4 -10 -10z"/>
<path d="M9396 809 c-21 -17 -26 -29 -26 -68 0 -64 17 -86 70 -86 53 0 80 29
80 87 0 74 -68 111 -124 67z m86 -16 c23 -20 24 -80 1 -105 -18 -20 -63 -24
-81 -6 -18 18 -15 94 4 112 20 21 53 20 76 -1z"/>
<path d="M10200 815 c0 -8 5 -15 10 -15 6 0 10 7 10 15 0 8 -4 15 -10 15 -5 0
-10 -7 -10 -15z"/>
<path d="M444 782 c-16 -10 -27 -85 -11 -75 7 4 7 1 -1 -10 -8 -9 -11 -21 -8
-26 4 -5 -1 -14 -10 -19 -9 -5 -16 -13 -16 -18 0 -5 -4 -19 -9 -32 -5 -13 -12
-40 -15 -61 -11 -69 42 -131 113 -131 16 0 42 -4 59 -9 20 -6 61 -5 110 2 65
10 83 17 111 43 27 25 33 39 33 71 0 22 -5 54 -11 72 -12 34 4 32 -189 33 -47
0 -70 2 -52 5 35 5 45 23 12 23 -29 0 -36 26 -16 66 19 40 20 54 5 54 -5 0 -7
-4 -4 -10 10 -16 -9 -40 -23 -31 -12 7 -18 24 -21 54 -1 9 -43 9 -57 -1z m26
-11 c0 -5 -6 -14 -14 -20 -12 -10 -14 -9 -11 6 2 10 4 19 4 21 2 6 21 1 21 -7z
m30 -81 c0 -19 -5 -30 -14 -30 -20 0 -29 16 -21 40 10 32 35 25 35 -10z m30
26 c0 -3 -4 -8 -10 -11 -5 -3 -10 -1 -10 4 0 6 5 11 10 11 6 0 10 -2 10 -4z
m98 -132 c12 -8 22 -19 22 -24 0 -15 57 -41 74 -34 24 9 21 54 -3 54 -11 0
-22 -6 -24 -12 -3 -8 -6 -6 -6 5 -1 9 1 17 3 17 2 0 11 3 19 6 21 8 47 -23 47
-55 0 -56 -52 -75 -147 -53 l-41 9 9 -25 c8 -20 6 -29 -8 -41 -16 -15 -16 -15
-4 2 17 22 -1 47 -34 47 -12 0 -34 9 -49 21 -16 12 -35 19 -46 16 -11 -3 -20
-1 -20 5 0 10 51 56 84 75 25 15 92 8 124 -13z m-121 -118 c0 -8 -8 -11 -20
-8 -14 4 -16 7 -5 13 19 12 25 11 25 -5z m18 -44 c-3 -3 -11 0 -18 7 -9 10 -8
11 6 5 10 -3 15 -9 12 -12z"/>
<path d="M9180 760 c-11 -11 -20 -31 -20 -45 0 -26 31 -65 53 -65 22 0 57 12
57 19 0 4 -14 6 -30 3 -29 -4 -60 11 -60 29 0 5 20 9 45 9 38 0 45 3 45 19 0
25 -26 51 -51 51 -10 0 -28 -9 -39 -20z m68 -17 c2 -9 -8 -13 -32 -13 -28 0
-34 3 -29 16 7 18 54 16 61 -3z"/>
<path d="M9560 690 c0 -53 4 -90 10 -90 6 0 10 16 10 35 0 33 1 34 20 23 39
-24 80 30 66 85 -7 31 -48 46 -71 27 -10 -9 -15 -9 -15 -1 0 6 -4 11 -10 11
-6 0 -10 -37 -10 -90z m84 54 c17 -44 -7 -81 -44 -69 -15 5 -20 15 -20 40 0
18 6 36 13 38 24 10 45 7 51 -9z"/>
<path d="M9722 764 c-32 -22 -30 -78 3 -100 16 -10 34 -14 50 -10 37 9 30 21
-12 21 -28 0 -38 5 -41 18 -3 14 4 17 42 17 50 0 57 10 30 48 -18 26 -41 28
-72 6z m66 -21 c2 -9 -8 -13 -32 -13 -34 0 -44 8 -29 24 11 11 56 2 61 -11z"/>
<path d="M9852 715 c1 -62 1 -65 7 -25 8 56 17 70 44 70 16 0 18 3 9 12 -10
10 -17 10 -32 1 -14 -10 -20 -10 -23 0 -3 7 -5 -19 -5 -58z"/>
<path d="M9957 768 c-15 -11 -13 -13 19 -13 21 0 39 -6 41 -12 3 -8 -4 -13
-17 -13 -32 0 -60 -18 -60 -39 0 -27 22 -41 58 -38 32 2 32 2 32 58 0 43 -4
58 -16 63 -23 9 -38 7 -57 -6z m63 -73 c0 -15 -46 -32 -57 -22 -3 4 -3 13 0
22 8 20 57 20 57 0z"/>
<path d="M10091 761 c-27 -27 -27 -65 -1 -91 21 -21 29 -23 54 -14 23 9 20 23
-4 17 -26 -7 -50 13 -50 42 0 29 24 49 51 42 13 -3 19 -1 16 6 -6 21 -45 19
-66 -2z"/>
<path d="M10200 715 c0 -37 4 -65 10 -65 6 0 10 28 10 65 0 37 -4 65 -10 65
-6 0 -10 -28 -10 -65z"/>
<path d="M10282 764 c-32 -22 -30 -78 3 -100 33 -21 73 -11 85 22 26 67 -32
118 -88 78z m66 -16 c30 -30 3 -82 -40 -76 -25 3 -33 26 -24 64 7 26 43 33 64
12z"/>
<path d="M10418 775 c-10 -17 -8 -125 2 -125 6 0 10 20 10 44 0 47 17 70 47
64 14 -2 19 -16 24 -58 l6 -55 1 56 c2 67 -14 89 -53 71 -17 -8 -25 -8 -28 1
-2 6 -6 7 -9 2z"/>
<path d="M10576 764 c-9 -9 -16 -32 -16 -55 0 -32 5 -41 24 -50 24 -11 76 -5
76 9 0 4 -17 7 -37 7 -28 0 -38 5 -41 18 -3 14 4 17 37 17 37 0 41 2 41 25 0
40 -54 59 -84 29z m68 -19 c4 -12 -3 -15 -29 -15 -33 0 -43 8 -28 23 12 13 51
7 57 -8z"/>
<path d="M10713 774 c-25 -11 -14 -51 17 -64 43 -18 40 -43 -5 -38 -38 4 -48
-7 -15 -17 27 -8 57 2 64 22 7 18 -1 30 -35 47 -27 14 -22 31 9 31 12 -1 21 4
19 10 -4 11 -36 17 -54 9z"/>
<path d="M231 624 c0 -11 3 -14 6 -6 3 7 2 16 -1 19 -3 4 -6 -2 -5 -13z"/>
<path d="M9640 465 c0 -57 4 -95 10 -95 6 0 10 38 10 95 0 57 -4 95 -10 95 -6
0 -10 -38 -10 -95z"/>
<path d="M9930 526 c0 -32 -2 -34 -32 -32 -25 1 -35 -5 -47 -26 -29 -50 16
-117 60 -90 18 12 23 12 30 0 5 -7 9 27 9 85 0 58 -4 97 -10 97 -5 0 -10 -15
-10 -34z m-16 -52 c25 -10 21 -71 -4 -79 -40 -13 -68 43 -38 73 14 14 20 14
42 6z"/>
<path d="M932 525 c0 -16 2 -22 5 -12 2 9 2 23 0 30 -3 6 -5 -1 -5 -18z"/>
<path d="M9388 539 c-32 -18 -22 -56 22 -84 22 -14 40 -29 40 -34 0 -18 -31
-33 -60 -29 -37 6 -40 -9 -4 -18 33 -8 70 9 79 37 8 23 -11 46 -60 75 -30 17
-12 47 25 42 32 -5 41 6 14 16 -22 8 -36 7 -56 -5z"/>
<path d="M9030 480 c-51 -51 5 -130 74 -104 27 10 18 21 -14 16 -29 -4 -60 11
-60 29 0 5 20 9 45 9 38 0 45 3 45 19 0 25 -26 51 -51 51 -10 0 -28 -9 -39
-20z m68 -17 c2 -9 -8 -13 -32 -13 -28 0 -34 3 -29 16 7 18 54 16 61 -3z"/>
<path d="M9160 435 c0 -37 4 -65 10 -65 6 0 10 22 10 49 0 42 3 51 21 56 29 9
42 -7 50 -63 7 -47 7 -47 5 12 -1 68 -20 91 -56 68 -12 -7 -20 -8 -20 -2 0 5
-4 10 -10 10 -6 0 -10 -28 -10 -65z"/>
<path d="M9513 493 c-26 -10 -12 -19 22 -15 46 5 48 -20 3 -33 -26 -8 -34 -16
-36 -37 -3 -29 -2 -30 55 -32 l33 -1 0 51 c0 27 -5 55 -12 62 -12 12 -43 15
-65 5z m55 -80 c-4 -20 -35 -30 -50 -15 -15 15 0 32 28 32 19 0 25 -5 22 -17z"/>
<path d="M9700 451 c0 -68 26 -94 71 -71 13 7 19 7 19 0 0 -5 4 -10 9 -10 11
0 13 109 3 125 -4 5 -9 -12 -12 -39 -5 -51 -25 -74 -54 -63 -12 5 -16 19 -16
57 0 27 -4 50 -10 50 -5 0 -10 -22 -10 -49z"/>
<path d="M244 458 c8 -41 49 -94 89 -115 35 -18 99 -22 164 -10 l42 7 -4 -30
c-3 -29 -2 -29 40 -28 23 0 48 -3 54 -6 7 -5 11 5 11 29 0 29 3 36 15 31 45
-17 117 -18 160 -2 48 19 101 72 111 112 8 30 -1 43 -18 26 -7 -7 -29 -12 -49
-12 -21 0 -41 -5 -44 -10 -4 -6 -10 -8 -15 -5 -5 3 -12 -1 -17 -8 -14 -25 -71
-47 -121 -47 -26 0 -53 -5 -59 -11 -8 -8 -17 -8 -31 0 -11 6 -39 11 -61 11
-48 0 -89 14 -118 42 -14 13 -41 23 -74 26 -30 3 -53 10 -56 18 -10 28 -25 14
-19 -18z"/>
</g>
</svg>
