<?xml version="1.0" standalone="no"?>
<!DOCTYPE svg PUBLIC "-//W3C//DTD SVG 20010904//EN"
 "http://www.w3.org/TR/2001/REC-SVG-20010904/DTD/svg10.dtd">
<svg version="1.0" xmlns="http://www.w3.org/2000/svg"
 width="453.000000pt" height="441.000000pt" viewBox="0 0 453.000000 441.000000"
 preserveAspectRatio="xMidYMid meet">

<g transform="translate(0.000000,441.000000) scale(0.100000,-0.100000)"
fill="#000000" stroke="none">
<path d="M1230 2360 c-133 -23 -244 -85 -342 -189 -144 -154 -174 -271 -165
-636 6 -260 25 -336 117 -459 79 -108 173 -176 306 -223 l79 -28 1010 0 1010
0 89 29 c188 62 331 204 393 389 26 80 27 87 27 342 1 288 -3 321 -61 443 -42
89 -143 200 -229 252 -32 19 -90 46 -128 60 l-71 25 -995 1 c-547 1 -1015 -2
-1040 -6z m234 -455 c221 -58 296 -325 138 -488 -56 -58 -105 -80 -193 -85
-66 -4 -84 -1 -130 20 -112 52 -168 130 -177 249 -10 146 76 267 218 305 60
17 76 17 144 -1z m1753 -21 c179 -86 218 -328 76 -470 -111 -112 -302 -112
-410 -2 -61 62 -88 127 -87 213 0 60 5 79 34 134 77 144 239 196 387 125z"/>
</g>
</svg>
