<svg xmlns="http://www.w3.org/2000/svg" width="24" height="24" fill="none" viewBox="0 0 96 96"><desc>Pinia Streamline Icon: https://streamlinehq.com</desc><path fill="url(#a)" d="M42.893 47.205c6.287-5.99 4.368-13.398-1.325-22.375S24.412 12.659 22.274 14.696s-2.612 16.603 3.081 25.58c5.694 8.977 11.251 12.918 17.538 6.929"/><path fill="url(#b)" d="M48.329 48.034c4.65 7.333 10.868 4.651 18.565-2.681C74.59 38.02 77.78 23.973 76.2 21.479s-13.604-2.369-21.3 4.964-11.223 14.258-6.572 21.59"/><path fill="url(#c)" d="M45.786 44c7.723.948 10.76-6.187 12.176-17.72S53.54 2.558 50.914 2.236c-2.627-.323-11.451 10.066-12.867 21.599s.016 19.216 7.739 20.164"/><path fill="url(#d)" d="M43.841 95c16.192 0 29.323-4.704 29.323-26.035S60.033 30.13 43.84 30.13 14.528 47.634 14.528 68.965 27.65 95 43.841 95"/><path fill="#eaadcc" d="M58.651 64.61c2.313 0 4.188-.871 4.188-1.947s-1.875-1.948-4.188-1.948-4.188.872-4.188 1.948 1.875 1.948 4.188 1.948M27.634 63.427c2.296.282 4.264-.355 4.395-1.423s-1.624-2.162-3.92-2.444-4.263.355-4.394 1.423 1.623 2.162 3.92 2.444"/><path fill="#000" d="M38.97 60.844a.585.585 0 0 0-.97.653c.897 1.33 2.276 2.103 4.09 2.31 1.807.207 3.42-.256 4.803-1.38a.584.584 0 0 0-.737-.907c-1.138.924-2.437 1.297-3.933 1.126-1.488-.17-2.557-.768-3.254-1.802M30.303 51.836a4.18 4.18 0 0 1 3.003 1.122 4.17 4.17 0 0 1 1.33 2.917 4.18 4.18 0 0 1-1.123 3.003 4.18 4.18 0 0 1-2.917 1.329 4.17 4.17 0 0 1-3.003-1.123 4.18 4.18 0 0 1-1.329-2.917 4.18 4.18 0 0 1 1.122-3.002 4.18 4.18 0 0 1 2.917-1.33"/><path fill="#fff" d="M30.524 55.336a1.364 1.364 0 1 0-2.726.096 1.364 1.364 0 0 0 2.726-.096"/><path fill="#000" d="M55.682 52.898a4.18 4.18 0 0 1 3.002 1.123 4.18 4.18 0 0 1 1.33 2.917 4.18 4.18 0 0 1-1.123 3.002 4.17 4.17 0 0 1-2.917 1.33 4.18 4.18 0 0 1-3.003-1.123 4.18 4.18 0 0 1-1.33-2.917 4.18 4.18 0 0 1 1.124-3.003 4.18 4.18 0 0 1 2.917-1.329"/><path fill="#fff" d="M30.275 50.96a5.065 5.065 0 1 1 .354 10.123 5.065 5.065 0 0 1-.354-10.123m3.486 4.946a3.312 3.312 0 1 0-6.62.231 3.312 3.312 0 0 0 6.62-.231M55.65 52.022a5.065 5.065 0 1 1 .354 10.123 5.065 5.065 0 0 1-.354-10.123m3.486 4.946a3.312 3.312 0 1 0-6.619.231 3.312 3.312 0 0 0 6.62-.23"/><path fill="#fff" d="M55.901 56.4a1.364 1.364 0 1 0-2.726.095 1.364 1.364 0 0 0 2.726-.096"/><path fill="#ecb732" d="m22.411 70.2 6.355 6.612 4.56-4.85a1.071 1.071 0 0 1 1.56 1.468l-4.633 4.93 6.574 6.84a1.071 1.071 0 0 1-1.545 1.485l-6.499-6.762-3.052 3.247a1.071 1.071 0 0 1-1.561-1.468l3.127-3.326-6.43-6.691A1.071 1.071 0 0 1 22.41 70.2M65.085 70.2a1.071 1.071 0 0 1 1.545 1.485l-6.43 6.69 3.127 3.327c.394.42.385 1.072-.012 1.48l-.035.034a1.07 1.07 0 0 1-1.514-.046l-3.053-3.247-6.498 6.762c-.399.414-1.05.439-1.479.063l-.036-.033a1.07 1.07 0 0 1-.03-1.515l6.574-6.84-4.634-4.93a1.07 1.07 0 0 1 .012-1.48l.035-.035a1.07 1.07 0 0 1 1.514.047l4.56 4.85z"/><path fill="#ffc73b" d="M50.448 37.068a1.07 1.07 0 0 1 0 1.515l-4.989 4.989 3.041 3.041c.407.407.418 1.06.034 1.48l-.034.035a1.07 1.07 0 0 1-1.515 0l-3.04-3.04-3.042 3.04a1.071 1.071 0 1 1-1.515-1.515l3.04-3.041-4.988-4.99a1.07 1.07 0 0 1-.034-1.479l.034-.035a1.07 1.07 0 0 1 1.515 0l4.99 4.989 4.988-4.99a1.07 1.07 0 0 1 1.515 0"/><defs><linearGradient id="a" x1="999.028" x2="1322.02" y1="-748.436" y2="819.057" gradientUnits="userSpaceOnUse"><stop stop-color="#52ce63"/><stop offset="1" stop-color="#51a256"/></linearGradient><linearGradient id="b" x1="842.523" x2="-725.153" y1="1002.32" y2="1324.95" gradientUnits="userSpaceOnUse"><stop stop-color="#52ce63"/><stop offset="1" stop-color="#51a256"/></linearGradient><linearGradient id="c" x1="1036.61" x2="735.026" y1="123.263" y2="2579.44" gradientUnits="userSpaceOnUse"><stop stop-color="#8ae99c"/><stop offset="1" stop-color="#52ce63"/></linearGradient><linearGradient id="d" x1="3027.09" x2="2540.32" y1="1163.56" y2="6509" gradientUnits="userSpaceOnUse"><stop stop-color="#ffe56c"/><stop offset="1" stop-color="#ffc63a"/></linearGradient></defs></svg>