<svg xmlns="http://www.w3.org/2000/svg" width="20" height="20" fill="none" viewBox="0 0 96 96"><desc>Python Streamline Icon: https://streamlinehq.com</desc><path fill="url(#a)" d="M47.661 1.245c-23.863 0-22.373 10.348-22.373 10.348l.027 10.721h22.772v3.219H16.27S1 23.8 1 47.879s13.328 23.224 13.328 23.224h7.954V59.93s-.429-13.328 13.115-13.328h22.586s12.69.205 12.69-12.264V13.721S72.599 1.245 47.66 1.245M35.105 8.454a4.093 4.093 0 0 1 4.097 4.097 4.093 4.093 0 0 1-4.097 4.097 4.093 4.093 0 0 1-4.097-4.097 4.093 4.093 0 0 1 4.097-4.097"/><path fill="url(#b)" d="M48.34 94.756c23.862 0 22.372-10.349 22.372-10.349l-.026-10.72H47.914v-3.22H79.73S95 72.2 95 48.121 81.674 24.897 81.674 24.897h-7.955V36.07s.43 13.328-13.115 13.328H38.017s-12.689-.205-12.689 12.264v20.617s-1.927 12.476 23.011 12.476m12.556-7.21a4.093 4.093 0 0 1-4.097-4.097 4.093 4.093 0 0 1 4.097-4.096 4.093 4.093 0 0 1 4.097 4.096 4.093 4.093 0 0 1-4.097 4.097"/><defs><linearGradient id="a" x1="904.358" x2="5562.66" y1="842.346" y2="5454.17" gradientUnits="userSpaceOnUse"><stop stop-color="#387eb8"/><stop offset="1" stop-color="#366994"/></linearGradient><linearGradient id="b" x1="1358.62" x2="6361.13" y1="1462.61" y2="6191.63" gradientUnits="userSpaceOnUse"><stop stop-color="#ffe052"/><stop offset="1" stop-color="#ffc331"/></linearGradient></defs></svg>