<svg xmlns="http://www.w3.org/2000/svg" width="24" height="24" fill="none" viewBox="0 0 96 96"><desc>Vitejs Streamline Icon: https://streamlinehq.com</desc><path fill="url(#a)" d="m94.63 14.912-44.101 78.86c-.91 1.628-3.25 1.638-4.174.018L1.379 14.92c-1.007-1.766.503-3.905 2.504-3.547l44.148 7.89c.282.051.57.05.852 0l43.225-7.88c1.994-.363 3.511 1.76 2.522 3.529"/><path fill="url(#b)" d="M69.061 1.023 36.425 7.418c-.536.105-.934.56-.966 1.105L33.451 42.43a1.2 1.2 0 0 0 1.466 1.238l9.086-2.097a1.198 1.198 0 0 1 1.444 1.408l-2.7 13.22c-.181.889.654 1.65 1.523 1.386l5.612-1.705a1.2 1.2 0 0 1 1.522 1.389l-4.29 20.764c-.268 1.299 1.46 2.007 2.18.894l.48-.744L76.37 25.111c.445-.889-.323-1.902-1.299-1.714l-9.353 1.805a1.2 1.2 0 0 1-1.379-1.509l6.105-21.162a1.2 1.2 0 0 0-1.382-1.508"/><defs><linearGradient id="a" x1="-76.685" x2="4679.61" y1="651.533" y2="7110.95" gradientUnits="userSpaceOnUse"><stop stop-color="#a15bce"/><stop offset="1" stop-color="#50156d"/></linearGradient><linearGradient id="b" x1="1900.75" x2="2879.19" y1="176.935" y2="6888.92" gradientUnits="userSpaceOnUse"><stop stop-color="#f1c606"/><stop offset=".083" stop-color="#ffdd35"/><stop offset="1" stop-color="#ffa800"/></linearGradient></defs></svg>